<svg width="35" height="27" viewBox="0 0 35 27" fill="none" xmlns="http://www.w3.org/2000/svg">
<path d="M8.96 26.224C7.424 26.224 6.112 25.936 5.024 25.36C4 24.784 3.168 23.984 2.528 22.96C1.888 22 1.408 20.848 1.088 19.504C0.768 18.096 0.608 16.784 0.608 15.568C0.608 12.368 1.408 9.456 3.008 6.832C4.672 4.144 7.2 2 10.592 0.399998L11.456 2.128C9.6 2.896 7.968 4.112 6.56 5.776C5.216 7.44 4.416 9.136 4.16 10.864C3.968 12.08 4 13.2 4.256 14.224C5.536 12.944 7.168 12.304 9.152 12.304C11.2 12.304 12.896 12.912 14.24 14.128C15.584 15.344 16.256 17.072 16.256 19.312C16.256 21.36 15.552 23.024 14.144 24.304C12.736 25.584 11.008 26.224 8.96 26.224ZM27.584 26.224C26.048 26.224 24.736 25.936 23.648 25.36C22.624 24.784 21.792 23.984 21.152 22.96C20.512 22 20.032 20.848 19.712 19.504C19.392 18.096 19.232 16.784 19.232 15.568C19.232 12.368 20.032 9.456 21.632 6.832C23.296 4.144 25.824 2 29.216 0.399998L30.08 2.128C28.224 2.896 26.592 4.112 25.184 5.776C23.84 7.44 23.04 9.136 22.784 10.864C22.592 12.08 22.624 13.2 22.88 14.224C24.16 12.944 25.792 12.304 27.776 12.304C29.824 12.304 31.52 12.912 32.864 14.128C34.208 15.344 34.88 17.072 34.88 19.312C34.88 21.36 34.176 23.024 32.768 24.304C31.36 25.584 29.632 26.224 27.584 26.224Z" fill="black"/>
</svg>
