<svg width="62" height="243" viewBox="0 0 62 243" fill="none" xmlns="http://www.w3.org/2000/svg">
<g opacity="0.25">
<path d="M62 182.378C62 178.364 61.2068 174.389 59.6657 170.681C58.1246 166.972 55.8658 163.602 53.0182 160.764C50.1706 157.925 46.79 155.674 43.0695 154.138C39.3489 152.601 35.3613 151.811 31.3342 151.811C27.3071 151.811 23.3194 152.601 19.5989 154.138C15.8783 155.674 12.4978 157.925 9.65017 160.764C6.80259 163.602 4.54376 166.972 3.00266 170.681C1.46156 174.389 0.668362 178.364 0.668363 182.378H62Z" fill="#302E2F"/>
<path d="M62 151.811C62 147.796 61.2068 143.822 59.6657 140.113C58.1246 136.404 55.8658 133.034 53.0182 130.196C50.1706 127.358 46.79 125.106 43.0695 123.57C39.3489 122.034 35.3613 121.243 31.3342 121.243C27.3071 121.243 23.3194 122.034 19.5989 123.57C15.8783 125.106 12.4978 127.358 9.65017 130.196C6.80259 133.034 4.54376 136.404 3.00266 140.113C1.46156 143.822 0.668362 147.796 0.668363 151.811H31.3342H62Z" fill="#302E2F"/>
<path d="M0 61.1356C0 65.1498 0.793195 69.1247 2.3343 72.8334C3.8754 76.542 6.13423 79.9118 8.98181 82.7503C11.8294 85.5888 15.21 87.8404 18.9305 89.3765C22.6511 90.9127 26.6387 91.7034 30.6658 91.7034C34.6929 91.7034 38.6806 90.9127 42.4011 89.3765C46.1217 87.8404 49.5022 85.5888 52.3498 82.7503C55.1974 79.9118 57.4562 76.542 58.9973 72.8334C60.5384 69.1247 61.3316 65.1498 61.3316 61.1356H0Z" fill="#012A5A"/>
<path d="M0 91.7034C0 95.7176 0.793195 99.6925 2.3343 103.401C3.8754 107.11 6.13423 110.48 8.98181 113.318C11.8294 116.157 15.21 118.408 18.9305 119.944C22.6511 121.481 26.6387 122.271 30.6658 122.271C34.6929 122.271 38.6806 121.481 42.4011 119.944C46.1217 118.408 49.5022 116.157 52.3498 113.318C55.1974 110.48 57.4562 107.11 58.9973 103.401C60.5384 99.6925 61.3316 95.7176 61.3316 91.7034H30.6658H0Z" fill="#012A5A"/>
<path d="M61.3316 181.864C57.3045 181.864 53.5511 182.422 49.8305 183.958C46.11 185.494 42.7294 187.746 39.8818 190.584C37.0342 193.423 34.7754 196.792 33.2343 200.501C31.6932 204.21 30.9 208.185 30.9 212.199C30.9 216.213 31.6932 220.188 33.2343 223.897C34.7754 227.605 37.0342 230.975 39.8818 233.813C42.7294 236.652 46.11 238.904 49.8305 240.44C53.5511 241.976 57.3045 243 61.3316 243L61.5658 212.199L61.3316 181.864Z" fill="#17C0B5"/>
<path d="M0 243C4.02709 243 8.24894 241.976 11.9695 240.44C15.69 238.904 19.0706 236.652 21.9182 233.813C24.7658 230.975 27.0246 227.605 28.5657 223.897C30.1068 220.188 30.9 216.213 30.9 212.199C30.9 208.185 30.1068 204.21 28.5657 200.501C27.0246 196.792 24.7658 193.423 21.9182 190.584C19.0706 187.746 15.69 185.494 11.9695 183.958C8.24894 182.422 4.02709 181.864 0 181.864L0.234186 212.199L0 243Z" fill="#17C0B5"/>
<path d="M31.3342 61.1356L62 0H0.668363L31.3342 61.1356Z" fill="#302E2F"/>
</g>
</svg>
