<?xml version="1.0" encoding="UTF-8"?><svg id="Layer_2" xmlns="http://www.w3.org/2000/svg" viewBox="0 0 224.82 210.6"><defs><style>.cls-1{fill:#19bfb5;}.cls-2{fill:#012a59;}</style></defs><g id="Layer_1-2"><path class="cls-2" d="M224.8,210.6h-84.14c.37-28.23,26.9-48.16,54.27-40.33,17.28,4.94,30.5,22.17,29.87,40.33Z"/><path class="cls-2" d="M0,210.6c.53-17.39,11.34-33.65,27.89-39.5,27.73-9.81,56.44,10.29,56.51,39.5H0Z"/><circle class="cls-1" cx="42.39" cy="140.43" r="21.06"/><path class="cls-2" d="M.26,91.17c.35-33.61,37.8-53.82,66.06-34.48,11.11,7.61,18.35,20.86,18.08,34.48H.26Z"/><circle class="cls-1" cx="42.38" cy="21.05" r="21.05"/><circle class="cls-1" cx="182.84" cy="140.42" r="21.05"/><path class="cls-2" d="M224.8,91.23h-84.14c.37-28.23,26.9-48.16,54.27-40.33,17.28,4.94,30.5,22.17,29.87,40.33Z"/><circle class="cls-1" cx="182.84" cy="21.05" r="21.05"/><path class="cls-2" d="M154.47,150.92h-84.14c.37-28.23,26.9-48.16,54.27-40.33,17.28,4.94,30.5,22.17,29.87,40.33Z"/><circle class="cls-1" cx="112.41" cy="80.74" r="21.05"/></g></svg>