<?xml version="1.0" encoding="UTF-8"?><svg id="Layer_2" xmlns="http://www.w3.org/2000/svg" viewBox="0 0 280.21 260.44"><defs><style>.cls-1{fill:#012a59;}.cls-2{fill:#17bfb4;}</style></defs><g id="Layer_1-2"><rect class="cls-1" x="5.43" y="133.09" width="52.29" height="37.01" transform="translate(-97.95 66.73) rotate(-45)"/><rect class="cls-1" x="78.84" y="206.5" width="52.29" height="37.01" transform="translate(-128.36 140.13) rotate(-45)"/><rect class="cls-1" x="42.35" y="169.91" width="51.84" height="36.79" transform="translate(-113.15 103.43) rotate(-45)"/><path class="cls-2" d="M265.38,146.31c1.75,1.73,3.53,3.48,5.28,5.2,3.24,3.2,6.63,6.45,9.55,9.87l-.16.46-25.41,25.34-15.34-14.98c-3.67,3.19-7.31,6.8-10.46,10.48l.31.94,13.81,13.74c.37.4.42.95.14,1.42l-25.09,25-15.36-14.63-.89.26-9.56,9.56c-.55.55-.02,1.07.34,1.57l13.79,13.44.25,1.2-25.01,25.12c-1.32.52-1.5-.63-2.16-1.27-13.2-12.77-25.88-26.11-38.99-38.97-.28-.47-.23-1.02.14-1.42l71.97-72.05c.4-1.41-2.37-2.98-3.25-3.84-12.68-12.33-25.17-25.02-37.7-37.42-5.4-5.35-11-10.47-16.24-16l25.33-25.63c.39-.25.77-.19,1.09.14,27.7,27.65,55.81,54.91,83.61,82.46Z"/><path class="cls-1" d="M274.56,128.98c-.52.12-.63-.17-.93-.47-11.65-12-23.47-23.93-35.48-35.6-.49-16.15-.05-32.4-.23-48.58-.98-3.72-3.42-6.22-7.1-7.3l-49.53.1c-.5.33-1,.65-1.43,1.07-20.93,20.23-40.97,41.69-61.8,62.16-1.4,1.37-3.26,2.67-4.61,4.18l-25.73-25.73c1.62-2.26,3.89-3.96,5.77-5.85C117.62,48.64,141.95,24.42,166.26.18l72.48-.18c11.56.66,21.64,5.69,28.62,14.89,8.48,11.19,7.43,21.76,7.53,35.06.2,25.66-.19,51.57,0,77.32l-.33,1.71Z"/><polygon class="cls-2" points="121.18 18.48 120.71 19.42 85.02 55.11 17.88 55.11 17.88 18.48 121.18 18.48"/></g></svg>