<svg width="323" height="330" viewBox="0 0 323 330" fill="none" xmlns="http://www.w3.org/2000/svg">
<g opacity="0.25">
<path d="M193.747 66.0001C193.747 70.2417 192.909 74.4417 191.282 78.3604C189.655 82.2792 187.27 85.8398 184.264 88.8391C181.257 91.8383 177.688 94.2175 173.76 95.8407C169.831 97.4639 165.621 98.2993 161.369 98.2993C157.117 98.2993 152.907 97.4639 148.979 95.8407C145.051 94.2175 141.481 91.8383 138.475 88.8391C135.468 85.8398 133.083 82.2792 131.456 78.3604C129.829 74.4417 128.992 70.2417 128.992 66.0001L193.747 66.0001Z" fill="#302E2F"/>
<path d="M193.747 98.2993C193.747 102.541 192.909 106.741 191.282 110.66C189.655 114.578 187.27 118.139 184.264 121.138C181.257 124.138 177.688 126.517 173.76 128.14C169.831 129.763 165.621 130.599 161.369 130.599C157.117 130.599 152.907 129.763 148.979 128.14C145.051 126.517 141.481 124.138 138.475 121.138C135.468 118.139 133.083 114.578 131.456 110.66C129.829 106.741 128.992 102.541 128.992 98.2993H161.369H193.747Z" fill="#302E2F"/>
<path d="M128.734 198C128.734 193.758 129.572 189.558 131.199 185.64C132.826 181.721 135.211 178.16 138.217 175.161C141.224 172.162 144.793 169.783 148.722 168.159C152.65 166.536 156.86 165.701 161.112 165.701C165.364 165.701 169.574 166.536 173.502 168.159C177.431 169.783 181 172.162 184.006 175.161C187.013 178.16 189.398 181.721 191.025 185.64C192.652 189.558 193.49 193.758 193.49 198H128.734Z" fill="#012A5A"/>
<path d="M128.734 165.701C128.734 161.459 129.572 157.259 131.199 153.34C132.826 149.422 135.211 145.861 138.217 142.862C141.224 139.863 144.793 137.483 148.722 135.86C152.65 134.237 156.86 133.402 161.112 133.402C165.364 133.402 169.574 134.237 173.502 135.86C177.431 137.483 181 139.863 184.006 142.862C187.013 145.861 189.398 149.422 191.025 153.34C192.652 157.259 193.49 161.459 193.49 165.701H161.112H128.734Z" fill="#012A5A"/>
<path d="M64.7552 32.2992C64.7552 50.1376 50.2593 64.5984 32.3776 64.5984C14.496 64.5984 2.83054e-06 50.1376 2.83054e-06 32.2992C2.83054e-06 14.4609 14.496 0 32.3776 0C50.2593 0 64.7552 14.4609 64.7552 32.2992Z" fill="#17C0B5"/>
<path d="M64.4965 0L129.252 64.5984H64.4965V0Z" fill="#302E2F"/>
<path d="M193.49 64.5984C189.238 64.5984 185.275 64.0097 181.346 62.3865C177.418 60.7633 173.849 58.3841 170.842 55.3849C167.836 52.3856 165.451 48.825 163.824 44.9063C162.197 40.9875 161.359 36.7875 161.359 32.5459C161.359 28.3043 162.197 24.1042 163.824 20.1855C165.451 16.2668 167.836 12.7061 170.842 9.70688C173.849 6.70762 177.418 4.32848 181.346 2.70529C185.275 1.0821 189.238 -3.70812e-07 193.49 0L193.737 32.5459L193.49 64.5984Z" fill="#17C0B5"/>
<path d="M128.734 0C132.986 0 137.444 1.0821 141.372 2.70529C145.3 4.32848 148.869 6.70762 151.876 9.70688C154.883 12.7061 157.267 16.2668 158.895 20.1855C160.522 24.1042 161.359 28.3043 161.359 32.5459C161.359 36.7875 160.522 40.9875 158.895 44.9063C157.267 48.825 154.883 52.3856 151.876 55.3849C148.869 58.3841 145.3 60.7633 141.372 62.3865C137.444 64.0097 132.986 64.5984 128.734 64.5984L128.982 32.5459L128.734 0Z" fill="#17C0B5"/>
<path d="M129.376 130.598L64.4967 66.0001L129.252 66.0001L129.376 130.598Z" fill="#302E2F"/>
<path d="M64.7552 66.0001C64.7552 70.2417 63.9178 74.4417 62.2906 78.3604C60.6635 82.2792 58.2786 85.8398 55.2721 88.8391C52.2655 91.8383 48.6962 94.2175 44.768 95.8407C40.8398 97.4639 36.6295 98.2993 32.3776 98.2993C28.1257 98.2993 23.9155 97.4639 19.9872 95.8407C16.059 94.2175 12.4897 91.8383 9.48319 88.8391C6.47665 85.8398 4.09173 82.2792 2.4646 78.3604C0.837474 74.4417 2.45883e-06 70.2417 2.83054e-06 66.0001L64.7552 66.0001Z" fill="#302E2F"/>
<path d="M0 130.599C-3.71712e-07 126.357 0.837471 122.157 2.4646 118.238C4.09173 114.319 6.47664 110.759 9.48318 107.76C12.4897 104.76 16.059 102.381 19.9872 100.758C23.9155 99.1347 28.1257 98.2993 32.3776 98.2993C36.6295 98.2993 40.8398 99.1347 44.768 100.758C48.6962 102.381 52.2655 104.76 55.2721 107.76C58.2786 110.759 60.6635 114.319 62.2906 118.238C63.9178 122.157 64.7552 126.357 64.7552 130.599H0Z" fill="#302E2F"/>
<path d="M323 130.599C323 166.275 294.008 195.197 258.245 195.197C222.481 195.197 193.49 166.275 193.49 130.599C193.49 94.9218 222.481 66.0001 258.245 66.0001C294.008 66.0001 323 94.9218 323 130.599Z" fill="#17C0B5"/>
<path d="M193.49 198H258.245V262.598H193.49V198Z" fill="#012A5A"/>
<path d="M257.985 0L322.74 64.5984H257.985V0Z" fill="#302E2F"/>
<path d="M322.481 198L257.726 262.598H322.481V198Z" fill="#012A5A"/>
<path d="M225.866 0.00134054L258.243 32.3006L225.867 64.5985L193.49 32.2992L225.866 0.00134054Z" fill="#012A5A"/>
<path d="M129.252 198C129.252 202.242 128.414 206.442 126.787 210.36C125.16 214.279 122.775 217.84 119.769 220.839C116.762 223.838 113.193 226.217 109.265 227.841C105.336 229.464 101.126 230.299 96.8741 230.299C92.6222 230.299 88.412 229.464 84.4838 227.841C80.5555 226.217 76.9862 223.838 73.9797 220.839C70.9732 217.84 68.5882 214.279 66.9611 210.36C65.334 206.442 64.4965 202.242 64.4965 198H129.252Z" fill="#302E2F"/>
<path d="M64.4965 262.598C64.4965 258.357 65.334 254.157 66.9611 250.238C68.5882 246.319 70.9732 242.759 73.9797 239.759C76.9862 236.76 80.5555 234.381 84.4837 232.758C88.412 231.135 92.6222 230.299 96.8741 230.299C101.126 230.299 105.336 231.135 109.265 232.758C113.193 234.381 116.762 236.76 119.769 239.759C122.775 242.759 125.16 246.319 126.787 250.238C128.414 254.157 129.252 258.357 129.252 262.598H64.4965Z" fill="#302E2F"/>
<path d="M64.4965 132L129.252 196.598H64.4965V132Z" fill="#302E2F"/>
<path d="M322.481 330C286.718 330 257.726 301.078 257.726 265.402H322.481V330Z" fill="#012A5A"/>
<path d="M193.747 297.701C193.747 279.862 179.251 265.402 161.369 265.402C143.488 265.402 128.992 279.862 128.992 297.701C128.992 315.539 143.488 330 161.369 330C179.251 330 193.747 315.539 193.747 297.701Z" fill="#17C0B5"/>
<path d="M129.252 297.701C129.252 279.862 114.756 265.402 96.8741 265.402C78.9925 265.402 64.4965 279.862 64.4965 297.701C64.4965 315.539 78.9925 330 96.8741 330C114.756 330 129.252 315.539 129.252 297.701Z" fill="#302E2F"/>
<path d="M64.7552 297.701C64.7552 279.862 50.2593 265.402 32.3776 265.402C14.496 265.402 2.83054e-06 279.862 2.83054e-06 297.701C2.83054e-06 315.539 14.496 330 32.3776 330C50.2593 330 64.7552 315.539 64.7552 297.701Z" fill="#17C0B5"/>
</g>
</svg>
