<svg width="133" height="424" viewBox="0 0 133 424" fill="none" xmlns="http://www.w3.org/2000/svg">
<g opacity="0.25">
<path d="M132.77 60.5714C132.77 64.5486 131.989 68.4868 130.473 72.1613C128.956 75.8357 126.734 79.1744 123.932 81.9867C121.13 84.799 117.803 87.0298 114.142 88.5518C110.481 90.0738 106.557 90.8571 102.595 90.8571C98.632 90.8571 94.7082 90.0738 91.0472 88.5518C87.3862 87.0298 84.0598 84.7989 81.2578 81.9867C78.4558 79.1744 76.2331 75.8357 74.7167 72.1613C73.2003 68.4868 72.4198 64.5486 72.4198 60.5714L132.77 60.5714Z" fill="#302E2F"/>
<path d="M132.77 90.8571C132.77 94.8343 131.989 98.7725 130.473 102.447C128.956 106.121 126.734 109.46 123.932 112.272C121.13 115.085 117.803 117.315 114.142 118.837C110.481 120.359 106.557 121.143 102.595 121.143C98.632 121.143 94.7082 120.359 91.0472 118.837C87.3862 117.315 84.0598 115.085 81.2578 112.272C78.4558 109.46 76.2331 106.121 74.7167 102.447C73.2003 98.7725 72.4198 94.8343 72.4198 90.8571H102.595H132.77Z" fill="#302E2F"/>
<path d="M72.4198 363.429C72.4198 359.451 73.2003 355.513 74.7167 351.839C76.2331 348.164 78.4558 344.826 81.2578 342.013C84.0598 339.201 87.3862 336.97 91.0472 335.448C94.7082 333.926 98.632 333.143 102.595 333.143C106.557 333.143 110.481 333.926 114.142 335.448C117.803 336.97 121.13 339.201 123.932 342.013C126.734 344.826 128.956 348.164 130.473 351.839C131.989 355.513 132.77 359.451 132.77 363.429H72.4198Z" fill="#302E2F"/>
<path d="M72.4198 333.143C72.4198 329.166 73.2003 325.227 74.7167 321.553C76.2331 317.879 78.4558 314.54 81.2578 311.728C84.0598 308.915 87.3862 306.685 91.0472 305.163C94.7082 303.641 98.632 302.857 102.595 302.857C106.557 302.857 110.481 303.641 114.142 305.163C117.803 306.685 121.13 308.915 123.932 311.728C126.734 314.54 128.956 317.879 130.473 321.553C131.989 325.227 132.77 329.166 132.77 333.143H102.595H72.4198Z" fill="#302E2F"/>
<path d="M132.77 424C99.4393 424 72.4198 396.881 72.4198 363.429H132.77V424Z" fill="#302E2F"/>
<path d="M72.4198 181.714C72.4198 177.737 73.2003 173.799 74.7167 170.124C76.2331 166.45 78.4558 163.111 81.2578 160.299C84.0598 157.487 87.3862 155.256 91.0472 153.734C94.7082 152.212 98.632 151.429 102.595 151.429C106.557 151.429 110.481 152.212 114.142 153.734C117.803 155.256 121.13 157.487 123.932 160.299C126.734 163.111 128.956 166.45 130.473 170.124C131.989 173.799 132.77 177.737 132.77 181.714H102.595H72.4198Z" fill="#012A5A"/>
<path d="M72.4198 151.429C72.4198 147.451 73.2003 143.513 74.7167 139.839C76.2331 136.164 78.4558 132.826 81.2578 130.013C84.0598 127.201 87.3862 124.97 91.0472 123.448C94.7082 121.926 98.632 121.143 102.595 121.143C106.557 121.143 110.481 121.926 114.142 123.448C117.803 124.97 121.13 127.201 123.932 130.013C126.734 132.826 128.956 136.164 130.473 139.839C131.989 143.513 132.77 147.451 132.77 151.429H102.595H72.4198Z" fill="#012A5A"/>
<path d="M132.77 60.5714C128.807 60.5714 125.114 60.0193 121.453 58.4973C117.792 56.9753 114.465 54.7445 111.663 51.9322C108.861 49.1199 106.638 45.7813 105.122 42.1068C103.606 38.4324 102.825 34.4942 102.825 30.517C102.825 26.5398 103.606 22.6016 105.122 18.9272C106.638 15.2527 108.861 11.9141 111.663 9.10176C114.465 6.28947 117.792 4.05864 121.453 2.53665C125.114 1.01465 128.807 -3.47696e-07 132.77 0L133 30.517L132.77 60.5714Z" fill="#17C0B5"/>
<path d="M72.4198 0C76.3824 0 80.5367 1.01465 84.1976 2.53665C87.8586 4.05865 91.1851 6.28947 93.9871 9.10176C96.7891 11.9141 99.0117 15.2527 100.528 18.9272C102.045 22.6016 102.825 26.5398 102.825 30.517C102.825 34.4942 102.045 38.4324 100.528 42.1068C99.0117 45.7813 96.7891 49.1199 93.9871 51.9322C91.1851 54.7445 87.8586 56.9753 84.1976 58.4973C80.5367 60.0193 76.3824 60.5714 72.4198 60.5714L72.6502 30.517L72.4198 0Z" fill="#17C0B5"/>
<path d="M132.77 272.571C132.77 255.845 119.26 242.286 102.595 242.286C85.9295 242.286 72.4198 255.845 72.4198 272.571C72.4198 289.298 85.9295 302.857 102.595 302.857C119.26 302.857 132.77 289.298 132.77 272.571Z" fill="#17C0B5"/>
<path d="M102.595 181.714L132.77 242.286H72.4198L102.595 181.714Z" fill="#302E2F"/>
<path d="M60.3498 242.286C60.3498 246.263 59.5693 250.201 58.0529 253.876C56.5364 257.55 54.3138 260.889 51.5118 263.701C48.7098 266.513 45.3833 268.744 41.7223 270.266C38.0613 271.788 34.1375 272.571 30.1749 272.571C26.2123 272.571 22.2885 271.788 18.6275 270.266C14.9665 268.744 11.64 266.513 8.83802 263.701C6.03602 260.889 3.81336 257.55 2.29693 253.876C0.780496 250.201 -3.46424e-07 246.263 0 242.286H60.3498Z" fill="#302E2F"/>
<path d="M60.3498 272.571C60.3498 276.549 59.5693 280.487 58.0529 284.161C56.5364 287.836 54.3138 291.174 51.5118 293.987C48.7098 296.799 45.3833 299.03 41.7223 300.552C38.0613 302.074 34.1375 302.857 30.1749 302.857C26.2123 302.857 22.2885 302.074 18.6275 300.552C14.9665 299.03 11.64 296.799 8.83802 293.987C6.03602 291.174 3.81336 287.836 2.29693 284.161C0.780496 280.487 -3.46424e-07 276.549 0 272.571H30.1749H60.3498Z" fill="#302E2F"/>
<path d="M0 363.429C0 359.451 0.780497 355.513 2.29693 351.839C3.81336 348.164 6.03603 344.826 8.83803 342.013C11.64 339.201 14.9665 336.97 18.6275 335.448C22.2885 333.926 26.2123 333.143 30.1749 333.143C34.1375 333.143 38.0613 333.926 41.7223 335.448C45.3833 336.97 48.7098 339.201 51.5118 342.013C54.3138 344.826 56.5364 348.164 58.0529 351.839C59.5693 355.513 60.3498 359.451 60.3498 363.429H30.1749H0Z" fill="#012A5A"/>
<path d="M0 333.143C0 329.166 0.780497 325.227 2.29693 321.553C3.81336 317.879 6.03603 314.54 8.83803 311.728C11.64 308.915 14.9665 306.685 18.6275 305.163C22.2885 303.641 26.2123 302.857 30.1749 302.857C34.1375 302.857 38.0613 303.641 41.7223 305.163C45.3833 306.685 48.7098 308.915 51.5118 311.728C54.3138 314.54 56.5364 317.879 58.0529 321.553C59.5693 325.227 60.3498 329.166 60.3498 333.143H30.1749H0Z" fill="#012A5A"/>
<path d="M60.3498 242.286C56.3872 242.286 52.6938 241.734 49.0328 240.212C45.3718 238.69 42.0454 236.459 39.2434 233.647C36.4414 230.834 34.2187 227.496 32.7023 223.821C31.1858 220.147 30.4053 216.208 30.4053 212.231C30.4053 208.254 31.1858 204.316 32.7023 200.641C34.2187 196.967 36.4414 193.628 39.2434 190.816C42.0454 188.004 45.3718 185.773 49.0328 184.251C52.6938 182.729 56.3872 181.714 60.3498 181.714L60.5802 212.231L60.3498 242.286Z" fill="#17C0B5"/>
<path d="M0 181.714C3.96262 181.714 8.11688 182.729 11.7779 184.251C15.4389 185.773 18.7653 188.004 21.5673 190.816C24.3693 193.628 26.592 196.967 28.1084 200.641C29.6248 204.316 30.4053 208.254 30.4053 212.231C30.4053 216.208 29.6248 220.147 28.1084 223.821C26.592 227.496 24.3693 230.834 21.5673 233.647C18.7653 236.459 15.4389 238.69 11.7779 240.212C8.11688 241.734 3.96262 242.286 0 242.286L0.230437 212.231L0 181.714Z" fill="#17C0B5"/>
<path d="M30.1749 363.429L60.3498 424H0L30.1749 363.429Z" fill="#302E2F"/>
</g>
</svg>
